<?xml version="1.0" encoding="UTF-8" standalone="no"?>
<!-- Created with Inkscape (http://www.inkscape.org/) -->

<svg
   width="500.59476mm"
   height="300.84778mm"
   viewBox="0 0 500.59476 300.84778"
   version="1.1"
   id="svg5"
   xml:space="preserve"
   xmlns:inkscape="http://www.inkscape.org/namespaces/inkscape"
   xmlns:sodipodi="http://sodipodi.sourceforge.net/DTD/sodipodi-0.dtd"
   xmlns="http://www.w3.org/2000/svg"
   xmlns:svg="http://www.w3.org/2000/svg"><sodipodi:namedview
     id="namedview7"
     pagecolor="#ffffff"
     bordercolor="#666666"
     borderopacity="1.0"
     inkscape:showpageshadow="2"
     inkscape:pageopacity="0.0"
     inkscape:pagecheckerboard="0"
     inkscape:deskcolor="#d1d1d1"
     inkscape:document-units="mm"
     showgrid="false"
     inkscape:zoom="1.4503086"
     inkscape:cx="149.27857"
     inkscape:cy="619.5233"
     inkscape:window-width="3200"
     inkscape:window-height="1271"
     inkscape:window-x="2391"
     inkscape:window-y="-9"
     inkscape:window-maximized="1"
     inkscape:current-layer="g345" /><defs
     id="defs2"><style
       id="style307">
      .cls-1 {
        fill: #fff;
      }

      .cls-2 {
        fill: #854be3;
      }
    </style></defs><g
     inkscape:label="Layer 1"
     inkscape:groupmode="layer"
     id="layer1"
     transform="translate(161.27027,34.29713)"><g
       id="g345"
       style="fill:#000000"
       transform="matrix(0.26458333,0,0,0.26458333,-49.567004,42.756394)"><path
         id="path8586"
         style="fill:#130000;stroke:#000000;stroke-width:0;stroke-linecap:square"
         d="M 1469.8262,-196.87046 678.60549,-28.66147 c -8.58584,1.805602 -16.93662,4.180409 -25.01367,7.087891 -8.07705,2.907481 -15.88105,6.347888 -23.3711,10.285156 l 0.004,0.0078 c -7.49001,3.9373145 -14.66254,8.374146 -21.47656,13.2695312 -6.81402,4.8953852 -13.26945,10.2497258 -19.33008,16.0273438 -6.98388,6.48605 -13.14682,13.579485 -18.91211,20.992188 -2.05883,2.537954 -3.85642,5.170319 -5.60937,7.8125 -1.54539,2.030994 -2.95632,4.281572 -4.4004,6.517578 -4.95101,7.775345 -9.34667,16.040555 -13.11914,24.667969 -3.77246,8.627415 -6.92094,17.617018 -9.38086,26.837893 l -29.9493,112.88478 c -2.40796,9.06808 -5.32369,18.00284 -8.6836,26.74219 -3.35991,8.73934 -7.16447,17.28349 -11.35351,25.57422 -3.31077,6.71463 -6.94322,13.325 -11.06641,19.42187 -1.85642,2.94758 -4.11382,6.09722 -5.9707,9.04492 -4.56068,6.62969 -9.42715,13.02855 -14.58008,19.17578 -5.15294,6.14724 -10.59135,12.04348 -16.30078,17.66602 -5.70944,5.62254 -11.68974,10.97176 -17.91993,16.02734 -6.23018,5.05559 -12.7106,9.81729 -19.42578,14.26368 -4.51263,3.23613 -9.74633,6.05141 -14.56445,9.18359 -11.4744,6.40506 -23.50406,12.06547 -36.02734,16.85547 -6.26165,2.395 -12.64711,4.57189 -19.14649,6.51562 -6.49938,1.94373 -13.11319,3.65444 -19.83398,5.11524 L -422.18554,561.84244 V 845.83659 L 415.29299,662.13151 c 8.54762,-1.81864 16.8684,-4.20993 24.92187,-7.13477 8.05348,-2.92483 15.83882,-6.38297 23.31446,-10.33594 7.47563,-3.95296 14.64098,-8.3997 21.45507,-13.30273 6.8141,-4.90303 13.27685,-10.26209 19.34571,-16.03711 6.06885,-5.77502 11.74446,-11.96621 16.98437,-18.53516 5.23992,-6.56894 10.04381,-13.51598 14.3711,-20.80078 4.32728,-7.2848 8.17881,-14.90749 11.50976,-22.83008 3.33095,-7.92258 6.14166,-16.14465 8.39258,-24.62695 l 29.94922,-112.88672 c 3.14049,-11.78084 7.05613,-23.203 11.69141,-34.21289 4.63528,-11.00989 9.98929,-21.60774 16.00586,-31.73633 6.01656,-10.12859 12.69612,-19.78884 19.98047,-28.92578 7.28434,-9.13694 15.17465,-17.75022 23.61328,-25.78516 8.43862,-8.03494 17.4249,-15.49186 26.90429,-22.31445 9.47939,-6.82259 19.45078,-13.01183 29.85743,-18.51172 10.40665,-5.49989 21.24834,-10.31011 32.46875,-14.37695 11.2204,-4.06684 22.81958,-7.38868 34.74023,-9.91211 L 1469.8262,83.358063 Z" /><path
         id="path8582"
         style="fill:#130000;stroke:#000000;stroke-width:0;stroke-linecap:square"
         d="m 453.97268,-291.22593 c -1.03874,1.33041 -2.23863,2.5122 -3.24219,3.87305 -4.50981,6.1154 -8.66051,12.53341 -12.41406,19.22656 -3.75356,6.69316 -7.10903,13.66064 -10.03125,20.8711 -2.92223,7.21045 -5.40998,14.66473 -7.42579,22.33203 l -29.94921,112.88477 c -2.95793,11.18249 -6.60136,22.036161 -10.89258,32.515621 -4.29123,10.479461 -9.23078,20.58627 -14.7793,30.277345 -5.54852,9.691074 -11.70575,18.965864 -18.43555,27.783203 -6.72979,8.817339 -14.03212,17.1769025 -21.86719,25.0351566 -7.39688,7.1977234 -14.80021,13.9212344 -22.80468,20.4003904 -6.66831,5.058966 -13.31717,10.102875 -20.49219,14.648438 -3.48518,2.222276 -6.96147,4.44243 -10.75195,6.560547 -5.6869,3.304943 -11.52043,6.380984 -17.49024,9.220703 -5.9698,2.83972 -12.07651,5.444029 -18.30859,7.808594 -6.23209,2.364565 -12.58877,4.48966 -19.0625,6.369141 -6.47374,1.879481 -13.06306,3.513971 -19.75782,4.898437 L -422.18554,204.84635 V 485.33268 L 298.15627,332.36393 c 5.87722,-1.23678 11.65117,-2.74713 17.30664,-4.51954 5.65547,-1.7724 11.19211,-3.80547 16.5957,-6.08593 5.40359,-2.28047 10.67335,-4.80934 15.79492,-7.57032 5.12158,-2.76097 10.09486,-5.75483 14.9043,-8.96875 4.80944,-3.21391 9.45471,-6.64781 13.92188,-10.28711 4.46716,-3.63929 8.7568,-7.48437 12.85156,-11.52148 4.09476,-4.03711 7.99527,-8.26646 11.6875,-12.67383 3.69223,-4.40737 7.17598,-8.99212 10.43555,-13.74219 4.74118,-6.90912 9.10452,-14.20325 12.95898,-21.82031 3.85446,-7.61706 7.19991,-15.55726 9.9082,-23.75586 1.55798,-4.07248 2.56927,-8.16551 3.82227,-12.3418 L 468.29299,86.190094 c 1.67183,-5.908886 3.47481,-11.602551 5.24805,-17.306641 2.07772,-5.600088 4.12658,-11.209396 6.41015,-16.910156 3.47381,-8.193497 7.35723,-16.20226 11.64649,-23.964844 4.28925,-7.762584 8.98546,-15.279161 14.08593,-22.492188 4.84862,-7.724901 10.71393,-14.9477854 16.78125,-21.746094 4.51318,-5.23931 9.22636,-10.288931 14.13086,-15.134766 4.9045,-4.845835 9.99964,-9.489248 15.27344,-13.919922 5.27381,-4.430673 10.72657,-8.648753 16.34766,-12.642578 5.62109,-3.993826 11.41107,-7.763537 17.35742,-11.298828 5.94635,-3.535292 12.04924,-6.835555 18.29883,-9.890626 6.24958,-3.05507 12.64498,-5.864805 19.17578,-8.417968 6.5308,-2.553164 13.19829,-4.849337 19.98828,-6.878907 6.78999,-2.02957 13.70331,-3.793054 20.73047,-5.277344 l 806.0586,-171.220702 v -20.31446 z" /><path
         id="path8576"
         style="fill:#130000;stroke:#000000;stroke-width:0;stroke-linecap:square"
         d="m 163.66408,-291.22593 c -5.63622,3.56397 -11.08049,7.39856 -17.01172,10.52735 -10.41541,5.49424 -21.26888,10.30256 -32.50586,14.37109 -11.23698,4.06853 -22.856463,7.39754 -34.802735,9.9336 L -422.18554,-149.74546 V 131.04361 L 181.83009,2.7272025 c 6.2869,-1.4380279 12.46868,-3.08132712 18.5254,-5.0429689 6.05671,-1.9616417 11.98846,-4.243549 17.77343,-6.9609375 9.41784,-4.1222711 18.68432,-9.1544661 27.0918,-14.8144531 4.61326,-3.031382 8.99038,-6.490786 13.40234,-9.931641 6.46342,-4.958328 12.64464,-10.516916 18.29883,-16.603516 4.05944,-4.157783 7.9176,-8.46998 11.4961,-12.962891 3.57849,-4.49291 6.87894,-9.165179 9.82031,-14.044922 5.20785,-8.028798 9.85628,-16.547894 13.83203,-25.466793 3.97575,-8.91891 7.27733,-18.23831 9.79102,-27.86719 l 29.94922,-112.88672 c 2.00239,-7.56533 4.32194,-14.97665 6.94531,-22.22266 2.62336,-7.24601 5.55048,-14.32536 8.76562,-21.22656 0.62568,-1.343 1.39555,-2.59252 2.04297,-3.92188 z" /></g></g></svg>
