<?xml version="1.0" encoding="UTF-8" standalone="no"?>
<!-- Created with Inkscape (http://www.inkscape.org/) -->

<svg
   width="328.63062mm"
   height="246.13019mm"
   viewBox="0 0 328.63062 246.13019"
   version="1.1"
   id="svg5"
   xml:space="preserve"
   inkscape:version="1.2.2 (732a01da63, 2022-12-09)"
   sodipodi:docname="klott.svg"
   xmlns:inkscape="http://www.inkscape.org/namespaces/inkscape"
   xmlns:sodipodi="http://sodipodi.sourceforge.net/DTD/sodipodi-0.dtd"
   xmlns:xlink="http://www.w3.org/1999/xlink"
   xmlns="http://www.w3.org/2000/svg"
   xmlns:svg="http://www.w3.org/2000/svg"><sodipodi:namedview
     id="namedview7"
     pagecolor="#ffffff"
     bordercolor="#666666"
     borderopacity="1.0"
     inkscape:showpageshadow="2"
     inkscape:pageopacity="0.0"
     inkscape:pagecheckerboard="0"
     inkscape:deskcolor="#d1d1d1"
     inkscape:document-units="mm"
     showgrid="false"
     inkscape:zoom="0.36257716"
     inkscape:cx="-1021.8515"
     inkscape:cy="-2331.9174"
     inkscape:window-width="3200"
     inkscape:window-height="1271"
     inkscape:window-x="2391"
     inkscape:window-y="-9"
     inkscape:window-maximized="1"
     inkscape:current-layer="g345" /><defs
     id="defs2"><linearGradient
       inkscape:collect="always"
       id="linearGradient644"><stop
         style="stop-color:#ffffff;stop-opacity:1;"
         offset="0.14352942"
         id="stop640" /><stop
         style="stop-color:#b9ff82;stop-opacity:1;"
         offset="0.74588233"
         id="stop642" /></linearGradient><style
       id="style307">
      .cls-1 {
        fill: #fff;
      }

      .cls-2 {
        fill: #854be3;
      }
    </style><style
       id="style10024">
      .cls-1 {
        fill: #fff;
      }

      .cls-2 {
        fill: #854be3;
      }
    </style><style
       id="style10627">
      .cls-1 {
        fill: #fff;
      }

      .cls-2 {
        fill: #854be3;
      }
    </style><style
       id="style465">
      .cls-1 {
        fill: #fff;
      }

      .cls-2 {
        fill: #854be3;
      }
    </style><linearGradient
       inkscape:collect="always"
       xlink:href="#linearGradient644"
       id="linearGradient2041"
       gradientUnits="userSpaceOnUse"
       gradientTransform="matrix(0.61073037,-1.4534502,1.4534502,0.61073037,-2562.8249,1834.7631)"
       x1="468.77319"
       y1="730.43018"
       x2="1412.6818"
       y2="736.28082" /></defs><g
     inkscape:label="Layer 1"
     inkscape:groupmode="layer"
     id="layer1"
     transform="translate(2126.9688,917.37504)"><g
       id="g345"
       style="fill:#000000"
       transform="matrix(0.26458333,0,0,0.26458333,-49.567004,42.756394)"><g
         id="g527"
         transform="translate(-6375.8843,-4026.0396)"><g
           id="g503"><path
             id="path2028"
             style="fill:url(#linearGradient2041);fill-opacity:1;stroke-width:15.8951"
             class="cls-1"
             d="m -1077.7525,397.19644 -135.6602,180.19923 c -7.3196,9.72608 -13.1161,20.23953 -17.3593,31.22851 -12.7291,32.96763 -11.4642,70.19259 4.705,103.10742 l 35.877,73.00586 c 30.0298,61.06608 23.2723,132.53832 -17.668,186.88673 l -267.8554,355.82811 h 239.4414 l 200.7207,-266.5293 c 5.2918,-7.2591 9.9971,-14.7697 13.5918,-22.914 3.0641,-6.4711 5.6012,-13.3315 7.4316,-20.1485 1.0379,-3.7017 1.7842,-7.5286 2.5293,-11.3535 1.1293,-5.5598 1.8214,-11.305 2.0098,-17.08789 0.4642,-8.08059 0.2159,-16.11435 -1.1543,-23.93164 -1.8679,-13.19859 -5.8008,-26.40384 -11.9629,-38.82032 l -35.875,-73.0039 c -19.2502,-39.12292 -23.3159,-82.382 -13.168,-122.94532 0.8153,-2.76069 1.5715,-5.37612 2.3867,-8.13672 2.0618,-6.54779 4.4157,-12.97213 7.125,-19.41992 1.3548,-3.22379 2.8563,-6.38564 4.5039,-9.48633 4.7967,-9.36358 10.4735,-18.35875 16.8204,-26.89843 l 203.05464,-269.58009 z m 302.67969,0 -225.97459,300.12305 c -5.6463,7.28259 -10.2453,15.35166 -14.1328,23.37305 l -3.3848,8.0586 c -1.0233,2.84579 -1.9839,5.54574 -2.7988,8.30664 -1.9004,5.75309 -3.3004,11.54519 -4.2598,17.52148 -0.2146,2.15119 -0.5132,4.09206 -0.8125,6.03516 -0.2914,3.15359 -0.5228,6.16263 -0.7519,9.16992 -0.8939,21.00336 3.371,42.44954 13.1543,62.25 l 35.87691,73.00391 c 14.23138,28.91074 20.27543,60.07149 18.17773,90.91406 -0.5961,7.16299 -1.42427,14.05559 -2.66797,21.11919 -1.1913,5.7061 -2.38192,11.4136 -4.07422,17.082 -0.8152,2.7606 -1.6308,5.5215 -2.65429,8.3672 -5.9088,17.3447 -14.72489,33.8136 -26.26368,48.9648 l -177.69918,235.9668 h 239.24411 l 110.34375,-146.5 c 20.18146,-26.6919 28.83796,-59.6054 25.16797,-91.4922 -1.3346,-11.5953 -4.17453,-23.3066 -8.82422,-34.3984 -1.0429,-2.8521 -2.35437,-5.4714 -3.60547,-8.2383 l -35.875,-73.00585 c -1.8226,-3.869 -3.49988,-7.67493 -5.17578,-11.48243 -1.4678,-3.89249 -2.93375,-7.78482 -4.33985,-11.82422 -3.84079,-11.78596 -6.49361,-23.93691 -7.72851,-36.17968 -0.9835,-6.27559 -1.19749,-12.74426 -1.11719,-19.08985 -0.1902,-38.52782 11.98009,-76.51714 36.08984,-108.45508 l 293.41016,-389.58985 z m 302.47852,0 -316.29492,420.13087 c -7.37149,9.74738 -13.21328,20.26863 -17.48438,31.25391 -4.27088,10.98537 -6.97219,22.43459 -8.05859,34.04687 -0.7044,6.60048 -0.69779,13.15536 -0.33789,19.68555 0.078,2.2745 0.36349,4.46304 0.65039,6.65234 0.1172,1.77349 0.38103,3.61032 0.64453,5.44531 1.9063,12.69728 5.87746,25.40072 11.72265,37.33985 l 35.87696,73.00386 c 5.76039,11.731 10.21068,24.118 13.38867,36.6602 1.3299,5.0416 2.45187,10.1674 3.07227,15.2559 0.3724,2.3972 0.62038,5.0907 0.99218,7.4882 2.53749,22.2729 0.81883,44.8254 -5.16406,66.4493 -0.8917,3.7633 -2.34571,7.6341 -3.44531,11.4824 -6.20199,17.2214 -14.9349,33.8985 -26.38867,49.2578 l -87.43555,116.1035 h 239.21484 l 20.16993,-26.7832 c 29.27794,-38.904 34.21481,-90.4518 12.65625,-134.3379 l -35.87696,-73.0039 c -29.88314,-61.0044 -23.21055,-132.685 17.66797,-186.88671 l 383.37891,-509.24415 z" /></g></g></g></g></svg>
