<?xml version="1.0" encoding="UTF-8" standalone="no"?>
<!-- Created with Inkscape (http://www.inkscape.org/) -->

<svg
   width="30.100998mm"
   height="17.878494mm"
   viewBox="0 0 30.100998 17.878494"
   version="1.1"
   id="svg5"
   xml:space="preserve"
   xmlns:inkscape="http://www.inkscape.org/namespaces/inkscape"
   xmlns:sodipodi="http://sodipodi.sourceforge.net/DTD/sodipodi-0.dtd"
   xmlns="http://www.w3.org/2000/svg"
   xmlns:svg="http://www.w3.org/2000/svg"><sodipodi:namedview
     id="namedview7"
     pagecolor="#ffffff"
     bordercolor="#666666"
     borderopacity="1.0"
     inkscape:showpageshadow="2"
     inkscape:pageopacity="0.0"
     inkscape:pagecheckerboard="0"
     inkscape:deskcolor="#d1d1d1"
     inkscape:document-units="mm"
     showgrid="false" /><defs
     id="defs2"><style
       id="style307">
      .cls-1 {
        fill: #fff;
      }

      .cls-2 {
        fill: #854be3;
      }
    </style></defs><g
     inkscape:label="Layer 1"
     inkscape:groupmode="layer"
     id="layer1"
     transform="translate(-41.093087,-166.33267)"><g
       id="g345"
       style="fill:#000000"
       transform="matrix(0.26458333,0,0,0.26458333,-49.567004,42.756394)"><path
         id="rect4183"
         style="fill:#000000;fill-opacity:1;stroke:#000000;stroke-width:0;stroke-linecap:square"
         d="m 342.65231,467.0599 v 67.57227 H 456.41988 V 467.0599 Z m 67.85546,2.66797 c 0.83708,-0.0246 1.68637,0.0655 2.5254,0.27734 l 39.7539,10.04688 v 0.0215 14.01172 l -40.87305,-10.33986 c -0.7345,-0.1808 -1.48076,-0.30483 -2.22656,-0.36133 -0.2486,-0.0226 -0.49749,-0.0332 -0.74609,-0.0332 -0.4972,0 -0.98285,0.0232 -1.46875,0.0684 l -0.59766,0.0664 c -2.938,0.452 -5.66131,1.9109 -7.69531,4.25 l -3.79688,4.36133 c -0.64409,0.7458 -1.40125,1.36762 -2.21484,1.85352 -0.4746,0.3051 -0.99471,0.54227 -1.53711,0.73437 -0.3842,0.1469 -0.78028,0.25879 -1.17578,0.33789 -0.2712,0.0565 -0.5413,0.11454 -0.8125,0.14844 -0.4972,0.0674 -1.01884,0.089 -1.52734,0.0664 -0.6328,-0.0113 -1.2535,-0.11286 -1.875,-0.25977 l -40.35157,-10.20312 v -14.02344 l 41.45899,10.47461 c 4.6895,1.1865 9.55908,-0.33838 12.73437,-3.98828 l 3.79688,-4.36133 c 1.71196,-1.9662 4.11766,-3.07484 6.6289,-3.14844 z m -2.02929,17.2168 h 0.62109 c 0.6328,0.0339 1.28908,0.11175 1.92188,0.28125 l 41.7539,10.55469 h 0.0117 v 14.02343 l -42.89648,-10.84765 c -2.7572,-0.7006 -5.58166,-0.4524 -8.10157,0.62109 -0.41809,0.1695 -0.8365,0.36231 -1.2207,0.59961 -0.7684,0.4181 -1.4915,0.92565 -2.1582,1.50195 -0.226,0.2034 -0.4396,0.40793 -0.6543,0.61133 -0.2034,0.2147 -0.40793,0.4283 -0.61133,0.6543 l -3.79687,4.36133 c -0.1469,0.1582 -0.28126,0.31794 -0.43945,0.46484 -0.5989,0.61021 -1.28852,1.11859 -2.01172,1.52539 -1.98881,1.11869 -4.38426,1.45674 -6.68946,0.86914 l -38.33008,-9.69531 v -14.01172 l 39.45899,9.97852 c 1.3108,0.33905 2.63408,0.46344 3.93359,0.37304 0.2147,-0.0113 0.4177,-0.034 0.6211,-0.0566 0.4181,-0.0452 0.82367,-0.12402 1.23047,-0.20312 0.4972,-0.113 0.97308,-0.25001 1.45898,-0.40821 2.0792,-0.7119 3.95412,-1.96641 5.45703,-3.69531 l 3.79688,-4.36133 c 1.0283,-1.1865 2.31755,-2.05637 3.71875,-2.57617 0.2034,-0.0678 0.40639,-0.13532 0.62109,-0.20312 0.1356,-0.0339 0.27107,-0.0681 0.41797,-0.11329 0.4181,-0.1017 0.83622,-0.16922 1.26562,-0.20312 0.2034,-0.0226 0.4064,-0.0336 0.6211,-0.0449 z m -2.00977,17.20703 c 0.83761,-0.0226 1.68745,0.0705 2.5293,0.28516 l 43.77734,11.0625 h 0.0117 v 14 l -44.89648,-11.34375 c -4.6782,-1.18651 -9.55908,0.34969 -12.73438,3.98828 l -3.79687,4.36133 c -2.2826,2.62159 -5.79626,3.71859 -9.15235,2.87109 l -36.33008,-9.1875 v -14.01172 l 37.44727,9.46875 c 1.3221,0.32775 2.65558,0.44085 3.95508,0.37305 0.2825,-0.0339 0.57646,-0.0446 0.84766,-0.0899 1.582,-0.2034 3.10814,-0.71249 4.49804,-1.49218 0.1469,-0.0904 0.31599,-0.18109 0.46289,-0.27149 0.3164,-0.1808 0.62222,-0.39509 0.91602,-0.62109 0.7345,-0.5537 1.423,-1.18612 2.0332,-1.88672 l 3.79688,-4.36133 c 0.6215,-0.71189 1.3453,-1.32227 2.125,-1.79687 0.113,-0.0678 0.22489,-0.13686 0.33789,-0.19336 0.1356,-0.0791 0.27302,-0.15681 0.41992,-0.22461 0.4181,-0.2034 0.84683,-0.38393 1.29883,-0.51953 0.79101,-0.2486 1.6155,-0.38756 2.45312,-0.41016 z" /></g></g></svg>
