<?xml version="1.0" encoding="UTF-8" standalone="no"?>
<!-- Created with Inkscape (http://www.inkscape.org/) -->

<svg
   width="78.845886mm"
   height="56.356262mm"
   viewBox="0 0 78.845886 56.356262"
   version="1.1"
   id="svg5"
   xml:space="preserve"
   inkscape:version="1.2.2 (732a01da63, 2022-12-09)"
   sodipodi:docname="klott.svg"
   xmlns:inkscape="http://www.inkscape.org/namespaces/inkscape"
   xmlns:sodipodi="http://sodipodi.sourceforge.net/DTD/sodipodi-0.dtd"
   xmlns="http://www.w3.org/2000/svg"
   xmlns:svg="http://www.w3.org/2000/svg"><sodipodi:namedview
     id="namedview7"
     pagecolor="#ffffff"
     bordercolor="#666666"
     borderopacity="1.0"
     inkscape:showpageshadow="2"
     inkscape:pageopacity="0.0"
     inkscape:pagecheckerboard="0"
     inkscape:deskcolor="#d1d1d1"
     inkscape:document-units="mm"
     showgrid="false"
     inkscape:zoom="0.09064429"
     inkscape:cx="-3921.9238"
     inkscape:cy="-413.70504"
     inkscape:window-width="3200"
     inkscape:window-height="1271"
     inkscape:window-x="2391"
     inkscape:window-y="-9"
     inkscape:window-maximized="1"
     inkscape:current-layer="g345" /><defs
     id="defs2"><style
       id="style307">
      .cls-1 {
        fill: #fff;
      }

      .cls-2 {
        fill: #854be3;
      }
    </style><style
       id="style10024">
      .cls-1 {
        fill: #fff;
      }

      .cls-2 {
        fill: #854be3;
      }
    </style><style
       id="style10627">
      .cls-1 {
        fill: #fff;
      }

      .cls-2 {
        fill: #854be3;
      }
    </style></defs><g
     inkscape:label="Layer 1"
     inkscape:groupmode="layer"
     id="layer1"
     transform="translate(591.94832,626.18113)"><g
       id="g345"
       style="fill:#000000"
       transform="matrix(0.26458333,0,0,0.26458333,-49.567004,42.756394)"><path
         style="fill:#00052a;fill-opacity:1"
         d="m -2007.9473,-2357.2633 c 11.5512,-23.0974 21.0023,-42.4474 21.0023,-43 0,-0.6515 -11.0695,-1.0046 -31.5,-1.0046 h -31.5 v -63.5 -63.5 h 64 64 v 63.5046 63.5045 l -21.5023,42.9955 -21.5023,42.9954 h -32 -32.0001 z m 150.0023,41.4908 c 0,-0.2776 9.45,-19.4005 21,-42.4954 11.55,-23.0949 21,-42.2178 21,-42.4954 0,-0.2775 -14.4,-0.5046 -32,-0.5046 h -32 v -63.5 -63.5 h 64 64 v 63.9969 63.9969 l -21.2445,42.5031 -21.2445,42.5031 h -31.7555 c -17.4655,0 -31.7555,-0.2271 -31.7555,-0.5046 z"
         id="path16505" /></g></g></svg>
