<?xml version="1.0" encoding="UTF-8" standalone="no"?>
<!-- Created with Inkscape (http://www.inkscape.org/) -->

<svg
   width="499.8645mm"
   height="320.02646mm"
   viewBox="0 0 499.8645 320.02646"
   version="1.1"
   id="svg5"
   xml:space="preserve"
   xmlns:inkscape="http://www.inkscape.org/namespaces/inkscape"
   xmlns:sodipodi="http://sodipodi.sourceforge.net/DTD/sodipodi-0.dtd"
   xmlns:xlink="http://www.w3.org/1999/xlink"
   xmlns="http://www.w3.org/2000/svg"
   xmlns:svg="http://www.w3.org/2000/svg"><sodipodi:namedview
     id="namedview7"
     pagecolor="#ffffff"
     bordercolor="#666666"
     borderopacity="1.0"
     inkscape:showpageshadow="2"
     inkscape:pageopacity="0.0"
     inkscape:pagecheckerboard="0"
     inkscape:deskcolor="#d1d1d1"
     inkscape:document-units="mm"
     showgrid="false"
     inkscape:zoom="1.4503086"
     inkscape:cx="149.27857"
     inkscape:cy="619.5233"
     inkscape:window-width="3200"
     inkscape:window-height="1271"
     inkscape:window-x="2391"
     inkscape:window-y="-9"
     inkscape:window-maximized="1"
     inkscape:current-layer="g345" /><defs
     id="defs2"><linearGradient
       inkscape:collect="always"
       id="linearGradient10833"><stop
         style="stop-color:#27b0df;stop-opacity:1;"
         offset="0"
         id="stop10829" /><stop
         style="stop-color:#864ce3;stop-opacity:1;"
         offset="1"
         id="stop10831" /></linearGradient><style
       id="style307">
      .cls-1 {
        fill: #fff;
      }

      .cls-2 {
        fill: #854be3;
      }
    </style><style
       id="style10024">
      .cls-1 {
        fill: #fff;
      }

      .cls-2 {
        fill: #854be3;
      }
    </style><style
       id="style10627">
      .cls-1 {
        fill: #fff;
      }

      .cls-2 {
        fill: #854be3;
      }
    </style><linearGradient
       inkscape:collect="always"
       xlink:href="#linearGradient10833"
       id="linearGradient10835"
       x1="-8660.2158"
       y1="1741.8003"
       x2="-7089.4917"
       y2="891.84686"
       gradientUnits="userSpaceOnUse" /><linearGradient
       inkscape:collect="always"
       xlink:href="#linearGradient10833"
       id="linearGradient16351"
       gradientUnits="userSpaceOnUse"
       x1="-8660.2158"
       y1="1741.8003"
       x2="-7089.4917"
       y2="891.84686" /><linearGradient
       inkscape:collect="always"
       xlink:href="#linearGradient10833"
       id="linearGradient16353"
       gradientUnits="userSpaceOnUse"
       x1="-8660.2158"
       y1="1741.8003"
       x2="-7089.4917"
       y2="891.84686" /><linearGradient
       inkscape:collect="always"
       xlink:href="#linearGradient10833"
       id="linearGradient16355"
       gradientUnits="userSpaceOnUse"
       x1="-8660.2158"
       y1="1741.8003"
       x2="-7089.4917"
       y2="891.84686" /></defs><g
     inkscape:label="Layer 1"
     inkscape:groupmode="layer"
     id="layer1"
     transform="translate(3165.2025,-85.743093)"><g
       id="g345"
       style="fill:#000000"
       transform="matrix(0.26458333,0,0,0.26458333,-49.567004,42.756394)"><g
         id="g10795"
         style="fill:url(#linearGradient10835);fill-opacity:1"
         inkscape:export-filename="pink-waves.svg"
         inkscape:export-xdpi="96"
         inkscape:export-ydpi="96"
         transform="translate(-3083.4816,-413.70505)"><path
           id="path10718"
           style="fill:url(#linearGradient16351);fill-opacity:1;stroke:#000000;stroke-width:0;stroke-linecap:square"
           d="m -6802.8966,884.10026 -753.2168,121.67184 c -8.073,1.2861 -15.9568,3.1124 -23.6093,5.4473 -7.6526,2.3349 -15.0735,5.1781 -22.2246,8.498 -7.1512,3.32 -14.0309,7.1164 -20.5997,11.3575 -6.5687,4.2411 -12.827,8.9269 -18.7324,14.0254 -6.7972,5.7152 -12.8685,12.0423 -18.5742,18.6757 -2.032,2.2674 -3.7846,4.6471 -5.5371,7.0254 -1.5307,1.8193 -2.9755,3.8333 -4.4219,5.8477 -4.9647,7.0085 -9.433,14.4976 -13.3379,22.3516 -3.9048,7.8539 -7.2461,16.0728 -9.959,24.541 l -33.0507,103.6855 c -2.6574,8.3284 -5.7835,16.5122 -9.3145,24.4942 -3.531,7.9819 -7.4669,15.762 -11.7461,23.2851 -3.3896,6.0967 -7.0585,12.082 -11.1758,17.5664 -1.8635,2.6578 -4.117,5.4847 -5.9804,8.1426 -4.5488,5.9602 -9.3701,11.6912 -14.4473,17.1738 -5.0772,5.4827 -10.4097,10.7172 -15.9805,15.6856 -5.5707,4.9683 -11.3806,9.6706 -17.4101,14.0879 -6.0295,4.4172 -12.279,8.5494 -18.7325,12.3789 -4.3479,2.8044 -9.3402,5.1913 -13.9687,7.8828 -10.9725,5.4336 -22.4274,10.1504 -34.3008,14.0332 -5.9367,1.9414 -11.9779,3.6731 -18.1152,5.1836 -6.1374,1.5105 -12.3718,2.7988 -18.6934,3.8496 l -776.123,134.1621 v 260.5703 l 859.2344,-149.1875 c 8.0381,-1.2998 15.8919,-3.1425 23.5214,-5.4941 7.6296,-2.3517 15.0345,-5.2122 22.1739,-8.5469 7.1393,-3.3347 14.0144,-7.1435 20.582,-11.3926 6.5676,-4.249 12.828,-8.9384 18.7422,-14.0332 5.9142,-5.0947 11.481,-10.5951 16.6601,-16.4668 5.1792,-5.8717 9.9715,-12.1153 14.334,-18.6953 4.3625,-6.58 8.2956,-13.4973 11.7598,-20.7168 3.4642,-7.2195 6.459,-14.7408 8.9434,-22.5312 l 33.0507,-103.6875 c 3.4637,-10.8193 7.6336,-21.2711 12.4532,-31.3047 4.8195,-10.0336 10.2888,-19.6485 16.3535,-28.7989 6.0647,-9.1503 12.7247,-17.8344 19.9238,-26.0039 7.1991,-8.1694 14.9375,-15.825 23.1602,-22.916 8.2227,-7.0909 16.9289,-13.6184 26.0644,-19.5332 9.1355,-5.9148 18.7011,-11.2163 28.6387,-15.8574 9.9376,-4.6411 20.248,-8.6208 30.8769,-11.8906 10.629,-3.2698 21.5757,-5.83 32.7852,-7.6309 l 669.9941,-108.2285 z"
           inkscape:export-filename="services-wave-2.svg"
           inkscape:export-xdpi="96"
           inkscape:export-ydpi="96" /><path
           id="path10714"
           style="fill:url(#linearGradient16353);fill-opacity:1;stroke:#000000;stroke-width:0;stroke-linecap:square"
           d="m -6867.4063,576.17448 -782.17,117.17773 c -6.0985,0.89657 -12.126,2.22599 -18.0273,3.84766 -5.9013,1.62167 -11.6767,3.5356 -17.2695,5.60351 l -10.7364,4.63868 c -3.625,1.79715 -7.0551,3.5099 -10.4003,5.41796 -7.1656,3.78956 -13.8831,8.08064 -20.3477,12.95704 -2.2006,1.87695 -4.2912,3.47463 -6.3809,5.07226 -3.2034,2.77329 -6.2105,5.46141 -9.2187,8.15039 -5.0824,4.85878 -9.8795,10.04376 -14.3555,15.52735 -4.4759,5.48359 -8.6316,11.2664 -12.4297,17.32226 -3.7981,6.05586 -7.2382,12.38341 -10.2871,18.95899 -3.0488,6.57558 -5.7054,13.39865 -7.9336,20.4414 l -33.0508,103.68555 c -3.2662,10.27074 -7.1563,20.20219 -11.6328,29.75781 -4.4764,9.55562 -9.5395,18.73568 -15.1504,27.5 -5.6109,8.76433 -11.7699,17.11292 -18.4394,25.00977 -6.6696,7.89686 -13.8495,15.34176 -21.502,22.29496 -7.2143,6.3586 -14.4016,12.2423 -22.1484,17.9043 -6.4379,4.4019 -12.8757,8.8027 -19.7617,12.7031 -3.3455,1.9081 -6.6915,3.8162 -10.3164,5.6133 -5.4441,2.8144 -11.0134,5.4075 -16.6973,7.7754 -5.6838,2.3678 -11.4813,4.5104 -17.3867,6.4238 -5.9054,1.9134 -11.9187,3.5977 -18.0274,5.0488 -6.1086,1.4512 -12.3136,2.6694 -18.6074,3.6504 l -682.4648,110.1406 v 272.6387 l 765.3808,-137.1484 c 5.5263,-0.8811 10.9681,-2.022 16.3125,-3.4121 5.3444,-1.3902 10.5914,-3.0295 15.7246,-4.9043 5.1333,-1.8749 10.1541,-3.9871 15.0469,-6.3223 4.8929,-2.3352 9.6581,-4.8929 14.2813,-7.6641 4.6231,-2.7711 9.1035,-5.7548 13.4277,-8.9375 4.3242,-3.1826 8.4924,-6.565 12.4883,-10.1347 3.9959,-3.5698 7.8206,-7.3273 11.459,-11.2598 3.6384,-3.9325 7.0902,-8.0398 10.3418,-12.3105 4.7295,-6.212 9.1234,-12.7995 13.0586,-19.711 3.9351,-6.9115 7.4116,-14.147 10.3086,-21.6523 1.6371,-3.7183 2.8007,-7.4638 4.1582,-11.293 l 33.0507,-103.6855 c 1.8278,-5.4221 3.7383,-10.6501 5.6504,-15.877 2.1917,-5.1159 4.3846,-10.2313 6.7715,-15.4316 3.6092,-7.4655 7.5888,-14.7443 11.9356,-21.7754 4.3468,-7.0312 9.0608,-13.8147 14.1386,-20.293 4.8671,-6.9663 10.6567,-13.4051 16.6153,-19.4531 4.4407,-4.6685 9.0606,-9.149 13.8476,-13.43362 4.787,-4.28465 9.7418,-8.37431 14.8535,-12.25586 5.1118,-3.88155 10.38,-7.55643 15.795,-11.01562 5.4149,-3.4592 10.9752,-6.70117 16.6718,-9.71875 5.6967,-3.01759 11.5296,-5.81048 17.4864,-8.36719 5.9567,-2.55671 12.0371,-4.8785 18.2324,-6.95508 6.1953,-2.07658 12.5057,-3.90718 18.918,-5.48438 6.4123,-1.57719 12.9273,-2.90044 19.5351,-3.95898 l 763.7617,-127.47266 V 576.17448 Z" /><path
           id="path10708"
           style="fill:url(#linearGradient16355);fill-opacity:1;stroke:#000000;stroke-width:0;stroke-linecap:square"
           d="m -7904.7306,576.17448 -8.3554,26.21289 c -3.4532,10.84363 -7.611,21.31068 -12.4199,31.35547 -4.809,10.04478 -10.2691,19.66676 -16.3243,28.81836 -6.0552,9.15159 -12.7064,17.83398 -19.8984,25.99804 -7.192,8.16407 -14.9252,15.81038 -23.1445,22.89258 -8.2194,7.0822 -16.9253,13.59986 -26.0625,19.50586 -9.1372,5.90601 -18.7049,11.20047 -28.6504,15.83594 -9.9456,4.63547 -20.2677,8.61221 -30.9121,11.88281 -10.6445,3.2706 -21.6119,5.83509 -32.8457,7.64649 l -588.8047,95.14257 v 259.20311 l 672.2812,-108.4941 c 5.9167,-1.0497 11.7499,-2.2955 17.4805,-3.8438 5.7306,-1.5482 11.3587,-3.3989 16.8672,-5.6621 8.9537,-3.40355 17.7652,-7.67434 25.8496,-12.55467 4.4324,-2.60916 8.695,-5.60818 12.959,-8.60742 6.2425,-4.31742 12.2339,-9.22044 17.7754,-14.625 3.9687,-3.6829 7.756,-7.51833 11.291,-11.53515 3.535,-4.01683 6.8177,-8.2151 9.7793,-12.6211 5.2154,-7.23258 9.9333,-14.94624 14.0429,-23.0625 4.1097,-8.11626 7.611,-16.63515 10.3926,-25.48047 l 33.0508,-103.68555 c 2.211,-6.94844 4.7099,-13.7391 7.4844,-20.36132 2.7745,-6.62223 5.8252,-13.07583 9.1347,-19.34961 3.3096,-6.27379 6.8792,-12.36838 10.6954,-18.27149 3.8162,-5.90311 7.8774,-11.6148 12.1718,-17.125 4.2945,-5.5102 8.8222,-10.819 13.5664,-15.91406 4.7443,-5.09507 9.7055,-9.97707 14.8711,-14.63477 5.1657,-4.6577 10.5351,-9.09095 16.0938,-13.28906 5.5587,-4.19811 11.3072,-8.16067 17.2305,-11.87695 3.3454,-1.90808 6.4944,-3.7306 9.8398,-5.63868 8.0575,-4.40633 16.2833,-8.42305 24.873,-12.13281 4.295,-1.85488 8.6751,-3.5141 13.1387,-4.97851 6.6532,-2.29426 13.4333,-4.29687 20.3047,-6.01954 6.8714,-1.72266 13.8342,-3.16538 20.8535,-4.34375 l 312.4141,-50.38671 z" /></g></g></g></svg>
