<?xml version="1.0" encoding="UTF-8" standalone="no"?>
<!-- Created with Inkscape (http://www.inkscape.org/) -->

<svg
   width="418.87115mm"
   height="248.10832mm"
   viewBox="0 0 418.87115 248.10832"
   version="1.1"
   id="svg5"
   xml:space="preserve"
   xmlns:inkscape="http://www.inkscape.org/namespaces/inkscape"
   xmlns:sodipodi="http://sodipodi.sourceforge.net/DTD/sodipodi-0.dtd"
   xmlns="http://www.w3.org/2000/svg"
   xmlns:svg="http://www.w3.org/2000/svg"><sodipodi:namedview
     id="namedview7"
     pagecolor="#ffffff"
     bordercolor="#666666"
     borderopacity="1.0"
     inkscape:showpageshadow="2"
     inkscape:pageopacity="0.0"
     inkscape:pagecheckerboard="0"
     inkscape:deskcolor="#d1d1d1"
     inkscape:document-units="mm"
     showgrid="false"
     inkscape:zoom="1.4503086"
     inkscape:cx="149.27857"
     inkscape:cy="619.5233"
     inkscape:window-width="3200"
     inkscape:window-height="1271"
     inkscape:window-x="2391"
     inkscape:window-y="-9"
     inkscape:window-maximized="1"
     inkscape:current-layer="g345" /><defs
     id="defs2"><style
       id="style307">
      .cls-1 {
        fill: #fff;
      }

      .cls-2 {
        fill: #854be3;
      }
    </style><style
       id="style10024">
      .cls-1 {
        fill: #fff;
      }

      .cls-2 {
        fill: #854be3;
      }
    </style></defs><g
     inkscape:label="Layer 1"
     inkscape:groupmode="layer"
     id="layer1"
     transform="translate(894.30709,-220.77796)"><g
       id="g345"
       style="fill:#000000"
       transform="matrix(0.26458333,0,0,0.26458333,-49.567004,42.756394)"><path
         id="path10467"
         style="fill:#000000;fill-opacity:1;stroke:#000000;stroke-width:0;stroke-linecap:square"
         d="m -1609.5834,1173.9546 -376.2051,177.2402 c -6.4644,3.0284 -12.6354,6.466 -18.4902,10.2735 -5.8549,3.8075 -11.3944,7.9856 -16.5938,12.498 v 0 c -5.1999,4.5131 -10.0566,9.3657 -14.5449,14.5156 -4.4883,5.15 -8.6074,10.5964 -12.332,16.3008 -4.3242,6.4371 -7.9089,13.204 -11.0957,20.1485 -1.1577,2.3935 -2.0253,4.819 -2.9219,7.2382 -0.845,1.8962 -1.5869,3.9446 -2.3145,5.9844 -2.474,7.0802 -4.4099,14.4392 -5.7871,21.9688 -1.3771,7.5296 -2.1937,15.2288 -2.4258,22.9902 l -2.7265,94.9981 c -0.2207,7.6307 -0.8646,15.2496 -1.8965,22.7968 -0.4457,3.26 -1.2383,6.4334 -1.8262,9.6621 h 136.7149 c 5.0016,-7.5475 10.4288,-14.8159 16.3867,-21.6621 6.2384,-7.1684 12.9841,-13.9272 20.2031,-20.2207 7.219,-6.2934 14.9108,-12.1217 23.041,-17.4316 8.1302,-5.3099 16.6979,-10.1005 25.67,-14.3184 l 247.1406,-116.4355 z" /><path
         id="path10463"
         style="fill:#000000;fill-opacity:1;stroke:#000000;stroke-width:0;stroke-linecap:square"
         d="m -1609.5834,861.90775 -530.0664,249.71095 c -4.9014,2.225 -9.6378,4.7945 -14.1953,7.5781 -4.5576,2.7836 -8.9368,5.7814 -13.1309,8.8672 l -7.9004,6.4902 c -2.6086,2.3833 -5.0673,4.6203 -7.4141,7.0293 -5.0982,4.9103 -9.7158,10.1458 -13.9668,15.7949 -1.3938,2.1064 -2.7259,3.9709 -4.0996,5.8086 -2.0187,3.1007 -3.9077,6.0893 -5.7832,9.0723 -3.0918,5.3046 -5.8652,10.8116 -8.2968,16.4922 -2.4317,5.6805 -4.5216,11.5347 -6.2461,17.5312 -1.7245,5.9965 -3.0843,12.1344 -4.0547,18.3867 -0.9704,6.2524 -1.5513,12.6183 -1.7207,19.0664 l -2.6992,94.9747 c -0.2638,9.4076 -1.1299,18.6833 -2.5782,27.7851 -1.4482,9.1018 -3.4787,18.0298 -6.0683,26.7422 -2.5897,8.7124 -5.7379,17.2099 -9.4258,25.4492 -3.6879,8.2394 -7.9152,16.2217 -12.6582,23.9043 -4.5186,7.0783 -9.1512,13.7531 -14.2852,20.375 -4.3399,5.2485 -8.6826,10.49 -13.5195,15.4258 -2.3468,2.409 -4.6928,4.8429 -7.3008,7.2266 -3.8891,3.6762 -7.9347,7.1949 -12.1308,10.5527 -4.1962,3.3578 -8.544,6.5545 -13.0352,9.584 -8.9823,6.0589 -18.5411,11.4511 -28.6309,16.1367 l -188.2871,88.6777 h 398.2383 c 0.2807,-1.0579 0.7206,-2.0451 0.9785,-3.1113 1.6321,-6.747 2.8011,-13.6546 3.42,-20.6523 0.4759,-3.5157 0.5565,-6.9492 0.7714,-10.4903 l 2.6993,-94.9746 c 0.2245,-4.9915 0.5812,-9.8537 0.9238,-14.7012 0.6039,-4.8228 1.1959,-9.6611 1.9433,-14.6015 1.2263,-7.1364 2.8028,-14.1994 4.7461,-21.1445 1.9434,-6.9452 4.254,-13.771 6.9512,-20.4336 2.4021,-7.0212 5.7158,-13.8141 9.2559,-20.3282 2.5993,-4.9899 5.3926,-9.8655 8.375,-14.6172 2.9823,-4.7516 6.1538,-9.3791 9.5058,-13.871 3.352,-4.492 6.8855,-8.8497 10.5938,-13.0606 3.7083,-4.2109 7.5913,-8.2753 11.6426,-12.1836 4.0512,-3.9083 8.2714,-7.6598 12.6523,-11.2441 4.3809,-3.5844 8.922,-7.0013 13.6191,-10.2403 4.6972,-3.2389 9.5488,-6.2998 14.5489,-9.1718 5,-2.8721 10.1499,-5.5553 15.4394,-8.0391 l 401.1895,-188.9199 z" /><path
         id="path10461"
         style="fill:#000000;fill-opacity:1;stroke:#000000;stroke-width:0;stroke-linecap:square"
         d="m -1609.5834,675.60306 v -2.76563 h -2.2735 z" /><path
         id="path10455"
         style="fill:#000000;fill-opacity:1;stroke:#000000;stroke-width:0;stroke-linecap:square"
         d="m -1871.2729,672.83743 -422.5137,199.0918 c -6.4314,3.0318 -12.5788,6.47292 -18.414,10.28711 -5.8352,3.8142 -11.3587,8.00104 -16.5449,12.52344 l 0.025,0.0312 c -3.8898,3.39148 -7.5886,6.97196 -11.0879,10.72266 -3.4994,3.75069 -6.7978,7.67266 -9.8848,11.75 -3.087,4.07733 -5.9625,8.30829 -8.6152,12.67968 -2.6528,4.3714 -5.0827,8.88275 -7.2793,13.51563 -2.1966,4.63288 -4.1604,9.38821 -5.8789,14.25 -1.7186,4.86179 -3.1917,9.83055 -4.4102,14.88867 -1.2185,5.05812 -2.1823,10.20586 -2.8789,15.42774 -0.6967,5.22187 -1.1265,10.51803 -1.2793,15.87114 l -2.7051,95.0254 c -0.2796,9.9336 -1.2413,19.7223 -2.8515,29.3125 -1.6103,9.5901 -3.8685,18.9818 -6.7403,28.123 -2.8718,9.1412 -6.3576,18.0324 -10.4219,26.6192 -4.0642,8.5867 -8.7069,16.8699 -13.8945,24.7968 -5.1876,7.9269 -10.9202,15.4967 -17.1621,22.6582 -6.2418,7.1615 -12.9937,13.9145 -20.2207,20.2051 -7.227,6.2907 -14.9292,12.1193 -23.0723,17.4336 -8.143,5.3143 -16.7268,10.1132 -25.7168,14.3457 l -689.8984,328.1738 h 517.793 l 301.5136,-142.0078 c 4.7118,-2.3095 9.3076,-4.7616 13.7442,-7.4433 4.4366,-2.6817 8.7131,-5.5931 12.789,-8.8223 6.6923,-5.0182 13.0509,-10.7246 18.6446,-16.7871 3.0894,-3.26 5.9424,-6.8295 8.7988,-10.3731 4.1962,-5.131 8.0645,-10.6868 11.4102,-16.5605 2.4412,-4.0487 4.6902,-8.1822 6.6836,-12.4063 1.9933,-4.224 3.7328,-8.5384 5.1543,-12.9511 2.6302,-7.3287 4.721,-14.9397 6.205,-22.7422 1.484,-7.8025 2.36,-15.7961 2.5586,-23.8906 l 2.7266,-95 c 0.1778,-6.3649 0.6363,-12.666 1.3652,-18.8926 0.7289,-6.2266 1.7286,-12.3785 2.9903,-18.4414 1.2617,-6.063 2.7844,-12.0382 4.5605,-17.9121 1.7762,-5.874 3.8059,-11.6471 6.0781,-17.3067 2.2723,-5.6596 4.7871,-11.205 7.5371,-16.625 2.7501,-5.4199 5.7339,-10.7142 8.9434,-15.8691 3.2095,-5.1549 6.6443,-10.1706 10.2949,-15.0351 3.6506,-4.8646 7.5185,-9.5782 11.5918,-14.127 2.3472,-2.4091 4.5572,-4.7301 6.9043,-7.1387 5.6976,-5.6435 11.6246,-10.9709 17.9375,-16.1582 3.1565,-2.5935 6.4342,-5.0464 9.8145,-7.3672 5.0294,-3.5319 10.238,-6.8495 15.5918,-9.955 5.3537,-3.1055 10.8511,-5.9981 16.457,-8.6817 l 555.0469,-261.33792 V 675.60306 l -2.2735,-2.76563 z" /></g></g></svg>
