<?xml version="1.0" encoding="UTF-8" standalone="no"?>
<!-- Created with Inkscape (http://www.inkscape.org/) -->

<svg
   width="140.85889mm"
   height="16.885513mm"
   viewBox="0 0 140.85889 16.885513"
   version="1.1"
   id="svg5"
   xml:space="preserve"
   xmlns="http://www.w3.org/2000/svg"
   xmlns:svg="http://www.w3.org/2000/svg"><defs
     id="defs2"><style
       id="style352">
      .cls-1 {
        fill: #854be3;
      }

      .cls-2 {
        fill: #00052c;
      }
    </style></defs><g
     id="layer1"
     transform="translate(-33.773503,-135.81726)"><g
       id="g408"
       transform="matrix(0.26458333,0,0,0.26458333,-67.773581,25.197613)"
       style="fill:#00052a;fill-opacity:1"><g
         id="g378"
         style="fill:#00052a;fill-opacity:1"><path
           class="cls-2"
           d="m 518.47,452.08 -9.27,-0.9 c -5.9,-0.57 -6.71,-2.55 -6.71,-4.6 0,-2.35 1.07,-5.05 9.42,-5.05 8.35,0 9.48,2.69 9.8,5.59 l 0.08,0.74 h 8.84 l -0.02,-0.85 c -0.28,-13.18 -13.86,-13.18 -18.32,-13.18 -12.76,0 -19.23,4.34 -19.23,12.89 0,7.15 4.41,11.05 13.49,11.91 l 9.2,0.91 c 5.42,0.48 6.48,2 6.48,4.45 0,3.69 -2.9,5.2 -10.02,5.2 -7.12,0 -10.09,-1.56 -10.55,-5.37 l -0.09,-0.73 h -8.92 l 0.03,0.86 c 0.47,13.02 14.53,13.02 19.15,13.02 8.05,0 13.49,-1.55 16.64,-4.73 2.15,-2.16 3.22,-5.12 3.19,-8.78 -0.08,-7.02 -4.15,-10.52 -13.19,-11.37 z"
           id="path356"
           style="fill:#00052a;fill-opacity:1" /><polygon
           class="cls-2"
           points="558.65,461.12 571.68,475.83 583.4,475.83 564.42,454.41 581.02,434.97 569.48,434.97 550.22,457.82 546.71,462.26 546.81,458.27 546.81,422.91 537.15,422.91 537.15,475.83 546.06,475.83 "
           id="polygon358"
           style="fill:#00052a;fill-opacity:1" /><path
           class="cls-2"
           d="m 604.59,433.84 c -7.84,0 -12.87,1.39 -15.81,4.39 -1.97,2 -2.94,4.74 -2.89,8.14 v 0.82 h 8.67 l 0.08,-0.75 c 0.3,-2.86 2.1,-4.76 9.87,-4.76 8.3,0 9.87,2.25 9.87,6.4 v 3.39 H 598.1 c -12.15,0 -14.7,6.77 -14.7,12.44 0,8.41 5.28,13.05 14.85,13.05 7,0 13.22,-2.31 16.72,-6.12 l 0.64,4.99 h 8.5 v -28.72 c 0,-9.05 -6.2,-13.27 -19.53,-13.27 z m 9.79,24.73 v 1.73 c 0,4.57 -6.28,8.74 -13.19,8.74 h -0.68 c -4.9,0 -7.38,-1.85 -7.38,-5.5 0,-3.3 2.05,-4.97 6.1,-4.97 z"
           id="path360"
           style="fill:#00052a;fill-opacity:1" /><path
           class="cls-2"
           d="m 654.43,433.84 c -6.34,0 -11.21,2.07 -14.54,6.16 l -0.19,-5.02 h -9.4 v 40.86 h 9.66 v -21.79 c 0,-7.43 4.17,-11.53 11.75,-11.53 7.15,0 10.77,3.88 10.77,11.53 v 21.79 h 9.66 v -23.37 c 0,-11.84 -6.46,-18.62 -17.72,-18.62 z"
           id="path362"
           style="fill:#00052a;fill-opacity:1" /><path
           class="cls-2"
           d="m 712.84,440.1 c -3.55,-4.11 -8.45,-6.26 -14.39,-6.26 -12.01,0 -20.73,9.07 -20.73,21.56 0,12.49 8.72,21.56 20.73,21.56 6.04,0 11.08,-2.21 14.45,-6.28 l 0.11,5.15 h 9.49 v -52.92 h -9.66 z m 0.15,15.3 c 0,7.71 -5.18,12.88 -12.88,12.88 -7.7,0 -12.88,-5.06 -12.88,-12.88 0,-7.82 5.06,-12.88 12.88,-12.88 7.82,0 12.88,5.18 12.88,12.88 z"
           id="path364"
           style="fill:#00052a;fill-opacity:1" /><path
           class="cls-2"
           d="m 734.85,418.09 c -3.52,0 -5.36,2.62 -5.36,5.21 0,2.59 1.84,5.13 5.36,5.13 3.52,0 5.43,-2.58 5.43,-5.13 0,-2.55 -1.87,-5.21 -5.43,-5.21 z"
           id="path366"
           style="fill:#00052a;fill-opacity:1" /><rect
           class="cls-2"
           x="730.02002"
           y="434.97"
           width="9.6599998"
           height="40.860001"
           id="rect368"
           style="fill:#00052a;fill-opacity:1" /><path
           class="cls-2"
           d="m 763.27,422.91 h -9.66 v 12.06 h -8.59 v 8.53 h 8.59 v 19.37 c 0,9.23 4.19,13.35 13.57,13.35 h 8.37 v -8.83 h -6.86 c -4.26,0 -5.42,-1.13 -5.42,-5.27 v -18.61 h 12.29 v -8.53 h -12.29 v -12.06 z"
           id="path370"
           style="fill:#00052a;fill-opacity:1" /><path
           class="cls-2"
           d="m 800.49,433.84 c -13.21,0 -22.09,8.67 -22.09,21.56 0,12.89 8.94,21.56 22.24,21.56 9.83,0 17.28,-4.61 19.93,-12.32 l 0.38,-1.11 h -9.36 l -0.23,0.45 c -1.74,3.35 -5.14,5.05 -10.11,5.05 -7.26,0 -11.72,-3.4 -12.96,-9.86 h 33.64 l 0.05,-0.78 c 0.5,-7.68 -1.39,-14.04 -5.45,-18.37 -3.79,-4.05 -9.34,-6.19 -16.04,-6.19 z m 0,7.77 c 6.83,0 10.76,3.35 11.99,10.24 h -24.31 c 1,-6.7 5.24,-10.24 12.32,-10.24 z"
           id="path372"
           style="fill:#00052a;fill-opacity:1" /><path
           class="cls-2"
           d="m 859.46,460.67 c -1.46,4.93 -5.3,7.54 -11.11,7.54 -7.78,0 -12.81,-5.03 -12.81,-12.81 0,-7.78 5.03,-12.81 12.81,-12.81 5.81,0 9.65,2.61 11.11,7.54 l 0.18,0.6 h 9.37 l -0.16,-0.97 c -1.64,-9.97 -9.3,-15.92 -20.5,-15.92 -15.32,0 -22.25,10.83 -22.32,21.56 -0.04,6.08 2.05,11.56 5.88,15.41 4,4.03 9.68,6.15 16.43,6.15 11.12,0 18.78,-5.95 20.49,-15.92 l 0.17,-0.98 h -9.38 l -0.18,0.6 z"
           id="path374"
           style="fill:#00052a;fill-opacity:1" /><path
           class="cls-2"
           d="m 898.47,433.84 c -6.3,0 -11.15,2.04 -14.47,6.07 v -17 h -9.66 v 52.92 H 884 v -21.79 c 0,-7.43 4.17,-11.53 11.75,-11.53 7.15,0 10.77,3.88 10.77,11.53 v 21.79 h 9.66 v -23.37 c 0,-11.84 -6.46,-18.62 -17.72,-18.62 z"
           id="path376"
           style="fill:#00052a;fill-opacity:1" /></g><g
         id="g386"
         style="fill:#00052a;fill-opacity:1"><path
           class="cls-1"
           d="m 478.41,469.38 v 12.39 l -39.73,-10.04 c -4.14,-1.05 -8.46,0.31 -11.27,3.53 l -3.36,3.86 c -2.02,2.32 -5.13,3.29 -8.1,2.54 l -32.15,-8.13 v -12.4 l 33.14,8.38 c 1.17,0.29 2.35,0.39 3.5,0.33 0.25,-0.03 0.51,-0.04 0.75,-0.08 1.4,-0.18 2.75,-0.63 3.98,-1.32 0.13,-0.08 0.28,-0.16 0.41,-0.24 0.28,-0.16 0.55,-0.35 0.81,-0.55 v 0 c 0.65,-0.49 1.26,-1.05 1.8,-1.67 l 3.36,-3.86 c 0.55,-0.63 1.19,-1.17 1.88,-1.59 0.1,-0.06 0.2,-0.12 0.3,-0.17 0.12,-0.07 0.24,-0.14 0.37,-0.2 0.37,-0.18 0.75,-0.34 1.15,-0.46 1.4,-0.44 2.92,-0.49 4.41,-0.11 l 38.74,9.79 z"
           id="path380"
           style="fill:#00052a;fill-opacity:1" /><path
           class="cls-1"
           d="m 478.41,453.7 v 12.41 l -37.96,-9.6 c -2.44,-0.62 -4.94,-0.4 -7.17,0.55 -0.37,0.15 -0.74,0.32 -1.08,0.53 -0.68,0.37 -1.32,0.82 -1.91,1.33 -0.2,0.18 -0.39,0.36 -0.58,0.54 -0.18,0.19 -0.36,0.38 -0.54,0.58 l -3.36,3.86 c -0.13,0.14 -0.25,0.28 -0.39,0.41 -0.53,0.54 -1.14,0.99 -1.78,1.35 -1.76,0.99 -3.88,1.29 -5.92,0.77 l -33.92,-8.58 v -12.4 l 34.92,8.83 c 1.16,0.3 2.33,0.41 3.48,0.33 0.19,-0.01 0.37,-0.03 0.55,-0.05 0.37,-0.04 0.73,-0.11 1.09,-0.18 0.44,-0.1 0.86,-0.22 1.29,-0.36 v 0 c 1.84,-0.63 3.5,-1.74 4.83,-3.27 l 3.36,-3.86 c 0.91,-1.05 2.05,-1.82 3.29,-2.28 0.18,-0.06 0.36,-0.12 0.55,-0.18 0.12,-0.03 0.24,-0.06 0.37,-0.1 0.37,-0.09 0.74,-0.15 1.12,-0.18 0.18,-0.02 0.36,-0.03 0.55,-0.04 v 0 c 0.18,0 0.37,0 0.55,0 0.56,0.03 1.14,0.1 1.7,0.25 l 36.95,9.34 z"
           id="path382"
           style="fill:#00052a;fill-opacity:1" /><path
           class="cls-1"
           d="m 478.41,438.03 v 12.4 l -36.17,-9.15 c -0.65,-0.16 -1.31,-0.27 -1.97,-0.32 -0.22,-0.02 -0.44,-0.03 -0.66,-0.03 -0.44,0 -0.87,0.02 -1.3,0.06 v 0 c -0.18,0.02 -0.35,0.04 -0.53,0.06 -2.6,0.4 -5.01,1.69 -6.81,3.76 l -3.36,3.86 c -0.57,0.66 -1.24,1.21 -1.96,1.64 -0.42,0.27 -0.88,0.48 -1.36,0.65 -0.34,0.13 -0.69,0.23 -1.04,0.3 -0.24,0.05 -0.48,0.1 -0.72,0.13 -0.44,0.06 -0.9,0.08 -1.35,0.06 -0.56,-0.01 -1.11,-0.1 -1.66,-0.23 l -35.71,-9.03 v -12.41 l 36.69,9.27 c 4.15,1.05 8.46,-0.3 11.27,-3.53 l 3.36,-3.86 c 2.02,-2.32 5.13,-3.29 8.1,-2.54 l 35.18,8.89 z"
           id="path384"
           style="fill:#00052a;fill-opacity:1" /></g></g></g></svg>
