<?xml version="1.0" encoding="UTF-8" standalone="no"?>
<!-- Created with Inkscape (http://www.inkscape.org/) -->

<svg
   width="25.032227mm"
   height="14.033112mm"
   viewBox="0 0 25.032227 14.033112"
   version="1.1"
   id="svg5"
   xml:space="preserve"
   xmlns:inkscape="http://www.inkscape.org/namespaces/inkscape"
   xmlns:sodipodi="http://sodipodi.sourceforge.net/DTD/sodipodi-0.dtd"
   xmlns="http://www.w3.org/2000/svg"
   xmlns:svg="http://www.w3.org/2000/svg"><sodipodi:namedview
     id="namedview7"
     pagecolor="#ffffff"
     bordercolor="#666666"
     borderopacity="1.0"
     inkscape:showpageshadow="2"
     inkscape:pageopacity="0.0"
     inkscape:pagecheckerboard="0"
     inkscape:deskcolor="#d1d1d1"
     inkscape:document-units="mm"
     showgrid="false" /><defs
     id="defs2"><style
       id="style307">
      .cls-1 {
        fill: #b9ff82;
      }

      .cls-2 {
        fill: #b9ff82;
      }
    </style></defs><g
     inkscape:label="Layer 1"
     inkscape:groupmode="layer"
     id="layer1"
     transform="translate(-51.980081,-156.22845)"><g
       id="g345"
       transform="matrix(0.26458333,0,0,0.26458333,-49.567004,42.756394)"><g
         id="g343"

         ><path

           class="cls-1"
           d="m 478.41,469.38 v 12.39 l -39.73,-10.04 c -4.14,-1.05 -8.46,0.31 -11.27,3.53 l -3.36,3.86 c -2.02,2.32 -5.13,3.29 -8.1,2.54 l -32.15,-8.13 v -12.4 l 33.14,8.38 c 1.17,0.29 2.35,0.39 3.5,0.33 0.25,-0.03 0.51,-0.04 0.75,-0.08 1.4,-0.18 2.75,-0.63 3.98,-1.32 0.13,-0.08 0.28,-0.16 0.41,-0.24 0.28,-0.16 0.55,-0.35 0.81,-0.55 v 0 c 0.65,-0.49 1.26,-1.05 1.8,-1.67 l 3.36,-3.86 c 0.55,-0.63 1.19,-1.17 1.88,-1.59 0.1,-0.06 0.2,-0.12 0.3,-0.17 0.12,-0.07 0.24,-0.14 0.37,-0.2 0.37,-0.18 0.75,-0.34 1.15,-0.46 1.4,-0.44 2.92,-0.49 4.41,-0.11 l 38.74,9.79 z"
           id="path337"
            /><path
   
           class="cls-1"
           d="m 478.41,453.7 v 12.41 l -37.96,-9.6 c -2.44,-0.62 -4.94,-0.4 -7.17,0.55 -0.37,0.15 -0.74,0.32 -1.08,0.53 -0.68,0.37 -1.32,0.82 -1.91,1.33 -0.2,0.18 -0.39,0.36 -0.58,0.54 -0.18,0.19 -0.36,0.38 -0.54,0.58 l -3.36,3.86 c -0.13,0.14 -0.25,0.28 -0.39,0.41 -0.53,0.54 -1.14,0.99 -1.78,1.35 -1.76,0.99 -3.88,1.29 -5.92,0.77 l -33.92,-8.58 v -12.4 l 34.92,8.83 c 1.16,0.3 2.33,0.41 3.48,0.33 0.19,-0.01 0.37,-0.03 0.55,-0.05 0.37,-0.04 0.73,-0.11 1.09,-0.18 0.44,-0.1 0.86,-0.22 1.29,-0.36 v 0 c 1.84,-0.63 3.5,-1.74 4.83,-3.27 l 3.36,-3.86 c 0.91,-1.05 2.05,-1.82 3.29,-2.28 0.18,-0.06 0.36,-0.12 0.55,-0.18 0.12,-0.03 0.24,-0.06 0.37,-0.1 0.37,-0.09 0.74,-0.15 1.12,-0.18 0.18,-0.02 0.36,-0.03 0.55,-0.04 v 0 c 0.18,0 0.37,0 0.55,0 0.56,0.03 1.14,0.1 1.7,0.25 l 36.95,9.34 z"
           id="path339"
            /><path

           class="cls-1"
           d="m 478.41,438.03 v 12.4 l -36.17,-9.15 c -0.65,-0.16 -1.31,-0.27 -1.97,-0.32 -0.22,-0.02 -0.44,-0.03 -0.66,-0.03 -0.44,0 -0.87,0.02 -1.3,0.06 v 0 c -0.18,0.02 -0.35,0.04 -0.53,0.06 -2.6,0.4 -5.01,1.69 -6.81,3.76 l -3.36,3.86 c -0.57,0.66 -1.24,1.21 -1.96,1.64 -0.42,0.27 -0.88,0.48 -1.36,0.65 -0.34,0.13 -0.69,0.23 -1.04,0.3 -0.24,0.05 -0.48,0.1 -0.72,0.13 -0.44,0.06 -0.9,0.08 -1.35,0.06 -0.56,-0.01 -1.11,-0.1 -1.66,-0.23 l -35.71,-9.03 v -12.41 l 36.69,9.27 c 4.15,1.05 8.46,-0.3 11.27,-3.53 l 3.36,-3.86 c 2.02,-2.32 5.13,-3.29 8.1,-2.54 l 35.18,8.89 z"
           id="path341"
            /></g></g></g></svg>
