<?xml version="1.0" encoding="UTF-8" standalone="no"?>
<!-- Created with Inkscape (http://www.inkscape.org/) -->

<svg
   width="92.693039mm"
   height="70.142494mm"
   viewBox="0 0 92.693039 70.142494"
   version="1.1"
   id="svg5"
   xml:space="preserve"
   xmlns:inkscape="http://www.inkscape.org/namespaces/inkscape"
   xmlns:sodipodi="http://sodipodi.sourceforge.net/DTD/sodipodi-0.dtd"
   xmlns="http://www.w3.org/2000/svg"
   xmlns:svg="http://www.w3.org/2000/svg"><sodipodi:namedview
     id="namedview7"
     pagecolor="#ffffff"
     bordercolor="#666666"
     borderopacity="1.0"
     inkscape:showpageshadow="2"
     inkscape:pageopacity="0.0"
     inkscape:pagecheckerboard="0"
     inkscape:deskcolor="#d1d1d1"
     inkscape:document-units="mm"
     showgrid="false" /><defs
     id="defs2"><style
       id="style307">
      .cls-1 {
        fill: #fff;
      }

      .cls-2 {
        fill: #854be3;
      }
    </style></defs><g
     inkscape:label="Layer 1"
     inkscape:groupmode="layer"
     id="layer1"
     transform="translate(-37.874104,-126.71833)"><g
       id="g345"
       style="fill:#000000"
       transform="matrix(0.26458333,0,0,0.26458333,-49.567004,42.756394)"><path
         id="path337"
         style="fill:#130000;fill-opacity:1;stroke-width:3.25481"
         class="cls-1"
         d="m 484.74934,358.98445 c -5.94173,4.13056 -9.99971,10.59157 -11.03431,18.02925 l -2.2936,16.49706 c -1.91412,13.80257 -11.26019,25.14605 -24.43991,29.66575 l -116.49544,39.99388 22.07435,33.82733 113.3968,-38.90556 c 1.73044,-0.62391 3.38754,-1.35599 4.93176,-2.32483 1.26218,-0.74593 2.48708,-1.61819 3.57972,-2.56439 0.60082,-0.50867 1.16099,-1.07383 1.72626,-1.637 0.82952,-0.81335 1.60883,-1.70676 2.30435,-2.66589 1.006,-1.31716 1.88728,-2.708 2.55183,-4.19102 1.19769,-2.45277 2.04529,-5.14453 2.42501,-7.95744 l 2.29364,-16.49707 c 1.22441,-8.8441 5.49712,-16.65001 11.87269,-22.36506 l 1.33713,-1.10096 c 1.10093,-0.87387 2.23597,-1.69423 3.43532,-2.47685 0.59967,-0.39133 1.21675,-0.75754 1.85202,-1.09434 1.88794,-1.03768 3.88325,-1.9132 5.93966,-2.63326 l 114.86991,-39.39664 -22.05588,-33.79904 -0.0337,-0.0519 -111.70917,38.3417 c -2.35744,0.80964 -4.54775,1.92939 -6.52832,3.30623 z m 22.20595,44.72468 c -0.50012,0.3652 -0.97244,0.7113 -1.42751,1.08601 -0.98243,0.75768 -1.88474,1.57876 -2.73318,2.48221 -0.28314,0.34026 -0.5562,0.63596 -0.82992,0.9312 -0.41117,0.5015 -0.79452,0.98393 -1.17844,1.46763 -2.56177,3.45949 -4.30243,7.58723 -4.9152,12.06795 l -2.29364,16.49704 c -0.90386,6.53621 -3.45183,12.51366 -7.34666,17.50378 -0.92307,1.14647 -1.85533,2.22604 -2.87679,3.28126 -0.8568,0.83113 -1.71103,1.65969 -2.64841,2.42688 -0.45507,0.37468 -0.90893,0.74907 -1.40902,1.11427 -2.99238,2.26362 -6.38033,4.04642 -10.07586,5.29204 l -110.89014,38.04234 22.05588,33.79905 107.72125,-36.94847 c 6.48554,-2.21123 11.7317,-6.79732 14.76815,-12.62643 1.10416,-2.11966 1.96741,-4.43156 2.45154,-6.84622 0.15035,-0.60338 0.22294,-1.2002 0.32833,-1.81302 l 2.29366,-16.4971 c 0.13481,-0.86532 0.29204,-1.70249 0.44473,-2.54056 0.1976,-0.8286 0.39098,-1.65817 0.61597,-2.50457 0.70105,-2.43961 1.64639,-4.8022 2.8418,-7.02029 0.55323,-1.17717 1.259,-2.30086 2.00073,-3.36786 4.38872,-6.55609 10.81116,-11.60076 18.56491,-14.2509 l 120.55022,-41.35678 -22.07435,-33.82734 -0.0288,0.0173 -117.33294,40.26495 c -1.79326,0.58725 -3.49884,1.43249 -5.07866,2.3468 z m 22.23769,44.67035 c -1.98491,1.37302 -3.75504,3.00607 -5.27179,4.85086 -0.87687,1.0386 -1.62688,2.14892 -2.31526,3.2977 -0.24771,0.39478 -0.45677,0.79855 -0.65938,1.20281 -0.18376,0.31416 -0.34481,0.65687 -0.51069,0.99831 -1.13371,2.37215 -1.91887,4.98383 -2.29743,7.67937 l -2.29364,16.49706 c -0.36912,2.65049 -1.03442,5.25981 -1.93462,7.75161 -0.35294,1.00764 -0.75331,2.00595 -1.23191,2.94014 -0.21199,0.44928 -0.47719,0.93419 -0.68924,1.38349 -2.12539,4.06864 -5.00539,7.69896 -8.50134,10.67985 -0.58305,0.53592 -1.27523,1.02455 -1.90332,1.55102 -3.02793,2.2091 -6.42264,4.03519 -10.12765,5.32583 l -105.23503,36.10535 22.05588,33.79905 102.09747,-35.02522 c 9.4296,-3.23848 16.17847,-11.41549 17.55788,-21.33236 l 2.29363,-16.49709 c 1.93195,-13.77524 11.28744,-25.16386 24.43988,-29.66573 l 126.15553,-43.30834 -22.03745,-33.77079 -0.0288,0.0173 -123.0132,42.22515 c -2.36867,0.80725 -4.56512,1.92049 -6.55004,3.2935 z" /></g></g></svg>
